<mxfile host="Electron" modified="2023-10-23T18:34:35.354Z" agent="Mozilla/5.0 (Windows NT 10.0; Win64; x64) AppleWebKit/537.36 (KHTML, like Gecko) draw.io/22.0.0 Chrome/114.0.5735.289 Electron/25.8.3 Safari/537.36" etag="OESjGjT0lvf38aT-Ihy5" version="22.0.0" type="device">
  <diagram name="Page-1" id="MYLYV4XdusLT8I2xZP5W">
    <mxGraphModel dx="1050" dy="621" grid="1" gridSize="10" guides="1" tooltips="1" connect="1" arrows="1" fold="1" page="1" pageScale="1" pageWidth="827" pageHeight="1169" math="0" shadow="0">
      <root>
        <mxCell id="0" />
        <mxCell id="1" parent="0" />
        <mxCell id="nMS-Zk-2UTAfJ6sOtUrn-41" value="&lt;b&gt;Sub-topology-1&lt;/b&gt;" style="rounded=1;whiteSpace=wrap;html=1;sketch=1;hachureGap=4;jiggle=2;curveFitting=1;fontFamily=Architects Daughter;fontSource=https%3A%2F%2Ffonts.googleapis.com%2Fcss%3Ffamily%3DArchitects%2BDaughter;fontSize=20;fillColor=#dae8fc;strokeColor=#6c8ebf;horizontal=0;verticalAlign=bottom;align=left;" vertex="1" parent="1">
          <mxGeometry x="123" y="430" width="190" height="270" as="geometry" />
        </mxCell>
        <mxCell id="nMS-Zk-2UTAfJ6sOtUrn-40" value="&lt;b&gt;Sub-topology-2&lt;/b&gt;" style="rounded=1;whiteSpace=wrap;html=1;sketch=1;hachureGap=4;jiggle=2;curveFitting=1;fontFamily=Architects Daughter;fontSource=https%3A%2F%2Ffonts.googleapis.com%2Fcss%3Ffamily%3DArchitects%2BDaughter;fontSize=20;fillColor=#d5e8d4;strokeColor=#82b366;horizontal=0;verticalAlign=bottom;align=left;" vertex="1" parent="1">
          <mxGeometry x="320" y="430" width="120" height="270" as="geometry" />
        </mxCell>
        <mxCell id="nMS-Zk-2UTAfJ6sOtUrn-39" value="&lt;b&gt;Sub-topology-0&lt;/b&gt;" style="rounded=1;whiteSpace=wrap;html=1;sketch=1;hachureGap=4;jiggle=2;curveFitting=1;fontFamily=Architects Daughter;fontSource=https%3A%2F%2Ffonts.googleapis.com%2Fcss%3Ffamily%3DArchitects%2BDaughter;fontSize=20;fillColor=#f8cecc;strokeColor=#b85450;horizontal=0;verticalAlign=bottom;align=right;" vertex="1" parent="1">
          <mxGeometry x="109.56" y="160" width="320.87" height="350" as="geometry" />
        </mxCell>
        <mxCell id="nMS-Zk-2UTAfJ6sOtUrn-12" style="edgeStyle=orthogonalEdgeStyle;rounded=0;sketch=1;hachureGap=4;jiggle=2;curveFitting=1;orthogonalLoop=1;jettySize=auto;html=1;exitX=0.5;exitY=1;exitDx=0;exitDy=0;entryX=0.5;entryY=0;entryDx=0;entryDy=0;fontFamily=Architects Daughter;fontSource=https%3A%2F%2Ffonts.googleapis.com%2Fcss%3Ffamily%3DArchitects%2BDaughter;fontSize=16;" edge="1" parent="1" source="nMS-Zk-2UTAfJ6sOtUrn-1" target="nMS-Zk-2UTAfJ6sOtUrn-3">
          <mxGeometry relative="1" as="geometry" />
        </mxCell>
        <mxCell id="nMS-Zk-2UTAfJ6sOtUrn-1" value="Topic-1" style="rounded=0;whiteSpace=wrap;html=1;sketch=1;hachureGap=4;jiggle=2;curveFitting=1;fontFamily=Architects Daughter;fontSource=https%3A%2F%2Ffonts.googleapis.com%2Fcss%3Ffamily%3DArchitects%2BDaughter;fontSize=20;fontStyle=1" vertex="1" parent="1">
          <mxGeometry x="130" y="180" width="80" height="40" as="geometry" />
        </mxCell>
        <mxCell id="nMS-Zk-2UTAfJ6sOtUrn-15" style="edgeStyle=orthogonalEdgeStyle;rounded=0;sketch=1;hachureGap=4;jiggle=2;curveFitting=1;orthogonalLoop=1;jettySize=auto;html=1;exitX=0.5;exitY=1;exitDx=0;exitDy=0;entryX=0.5;entryY=0;entryDx=0;entryDy=0;fontFamily=Architects Daughter;fontSource=https%3A%2F%2Ffonts.googleapis.com%2Fcss%3Ffamily%3DArchitects%2BDaughter;fontSize=16;" edge="1" parent="1" source="nMS-Zk-2UTAfJ6sOtUrn-2" target="nMS-Zk-2UTAfJ6sOtUrn-4">
          <mxGeometry relative="1" as="geometry" />
        </mxCell>
        <mxCell id="nMS-Zk-2UTAfJ6sOtUrn-2" value="Topic-2" style="rounded=0;whiteSpace=wrap;html=1;sketch=1;hachureGap=4;jiggle=2;curveFitting=1;fontFamily=Architects Daughter;fontSource=https%3A%2F%2Ffonts.googleapis.com%2Fcss%3Ffamily%3DArchitects%2BDaughter;fontSize=20;fontStyle=1" vertex="1" parent="1">
          <mxGeometry x="260" y="180" width="80" height="40" as="geometry" />
        </mxCell>
        <mxCell id="nMS-Zk-2UTAfJ6sOtUrn-13" style="edgeStyle=orthogonalEdgeStyle;rounded=0;sketch=1;hachureGap=4;jiggle=2;curveFitting=1;orthogonalLoop=1;jettySize=auto;html=1;exitX=0.5;exitY=1;exitDx=0;exitDy=0;entryX=0.5;entryY=0;entryDx=0;entryDy=0;fontFamily=Architects Daughter;fontSource=https%3A%2F%2Ffonts.googleapis.com%2Fcss%3Ffamily%3DArchitects%2BDaughter;fontSize=16;" edge="1" parent="1" source="nMS-Zk-2UTAfJ6sOtUrn-3" target="nMS-Zk-2UTAfJ6sOtUrn-8">
          <mxGeometry relative="1" as="geometry" />
        </mxCell>
        <mxCell id="nMS-Zk-2UTAfJ6sOtUrn-3" value="" style="ellipse;whiteSpace=wrap;html=1;aspect=fixed;sketch=1;hachureGap=4;jiggle=2;curveFitting=1;fontFamily=Architects Daughter;fontSource=https%3A%2F%2Ffonts.googleapis.com%2Fcss%3Ffamily%3DArchitects%2BDaughter;fontSize=20;fillColor=#60a917;fontColor=#ffffff;strokeColor=#2D7600;" vertex="1" parent="1">
          <mxGeometry x="150" y="260" width="40" height="40" as="geometry" />
        </mxCell>
        <mxCell id="nMS-Zk-2UTAfJ6sOtUrn-16" style="rounded=0;sketch=1;hachureGap=4;jiggle=2;curveFitting=1;orthogonalLoop=1;jettySize=auto;html=1;exitX=0;exitY=1;exitDx=0;exitDy=0;entryX=1;entryY=0.5;entryDx=0;entryDy=0;fontFamily=Architects Daughter;fontSource=https%3A%2F%2Ffonts.googleapis.com%2Fcss%3Ffamily%3DArchitects%2BDaughter;fontSize=16;" edge="1" parent="1" source="nMS-Zk-2UTAfJ6sOtUrn-4" target="nMS-Zk-2UTAfJ6sOtUrn-8">
          <mxGeometry relative="1" as="geometry" />
        </mxCell>
        <mxCell id="nMS-Zk-2UTAfJ6sOtUrn-17" style="rounded=0;sketch=1;hachureGap=4;jiggle=2;curveFitting=1;orthogonalLoop=1;jettySize=auto;html=1;exitX=1;exitY=1;exitDx=0;exitDy=0;entryX=0;entryY=0;entryDx=0;entryDy=0;fontFamily=Architects Daughter;fontSource=https%3A%2F%2Ffonts.googleapis.com%2Fcss%3Ffamily%3DArchitects%2BDaughter;fontSize=16;" edge="1" parent="1" source="nMS-Zk-2UTAfJ6sOtUrn-4" target="nMS-Zk-2UTAfJ6sOtUrn-9">
          <mxGeometry relative="1" as="geometry" />
        </mxCell>
        <mxCell id="nMS-Zk-2UTAfJ6sOtUrn-4" value="" style="ellipse;whiteSpace=wrap;html=1;aspect=fixed;sketch=1;hachureGap=4;jiggle=2;curveFitting=1;fontFamily=Architects Daughter;fontSource=https%3A%2F%2Ffonts.googleapis.com%2Fcss%3Ffamily%3DArchitects%2BDaughter;fontSize=20;fillColor=#60a917;fontColor=#ffffff;strokeColor=#2D7600;" vertex="1" parent="1">
          <mxGeometry x="280" y="260" width="40" height="40" as="geometry" />
        </mxCell>
        <mxCell id="nMS-Zk-2UTAfJ6sOtUrn-28" style="edgeStyle=orthogonalEdgeStyle;rounded=0;sketch=1;hachureGap=4;jiggle=2;curveFitting=1;orthogonalLoop=1;jettySize=auto;html=1;exitX=0.5;exitY=1;exitDx=0;exitDy=0;entryX=0.5;entryY=0;entryDx=0;entryDy=0;fontFamily=Architects Daughter;fontSource=https%3A%2F%2Ffonts.googleapis.com%2Fcss%3Ffamily%3DArchitects%2BDaughter;fontSize=16;" edge="1" parent="1" source="nMS-Zk-2UTAfJ6sOtUrn-5" target="nMS-Zk-2UTAfJ6sOtUrn-22">
          <mxGeometry relative="1" as="geometry" />
        </mxCell>
        <mxCell id="nMS-Zk-2UTAfJ6sOtUrn-5" value="Topic-3" style="rounded=0;whiteSpace=wrap;html=1;sketch=1;hachureGap=4;jiggle=2;curveFitting=1;fontFamily=Architects Daughter;fontSource=https%3A%2F%2Ffonts.googleapis.com%2Fcss%3Ffamily%3DArchitects%2BDaughter;fontSize=20;fontStyle=1" vertex="1" parent="1">
          <mxGeometry x="130" y="450" width="80" height="40" as="geometry" />
        </mxCell>
        <mxCell id="nMS-Zk-2UTAfJ6sOtUrn-29" style="edgeStyle=orthogonalEdgeStyle;rounded=0;sketch=1;hachureGap=4;jiggle=2;curveFitting=1;orthogonalLoop=1;jettySize=auto;html=1;exitX=0.5;exitY=1;exitDx=0;exitDy=0;entryX=0.5;entryY=0;entryDx=0;entryDy=0;fontFamily=Architects Daughter;fontSource=https%3A%2F%2Ffonts.googleapis.com%2Fcss%3Ffamily%3DArchitects%2BDaughter;fontSize=16;" edge="1" parent="1" source="nMS-Zk-2UTAfJ6sOtUrn-6" target="nMS-Zk-2UTAfJ6sOtUrn-23">
          <mxGeometry relative="1" as="geometry" />
        </mxCell>
        <mxCell id="nMS-Zk-2UTAfJ6sOtUrn-6" value="Topic-4" style="rounded=0;whiteSpace=wrap;html=1;sketch=1;hachureGap=4;jiggle=2;curveFitting=1;fontFamily=Architects Daughter;fontSource=https%3A%2F%2Ffonts.googleapis.com%2Fcss%3Ffamily%3DArchitects%2BDaughter;fontSize=20;fontStyle=1" vertex="1" parent="1">
          <mxGeometry x="230" y="450" width="80" height="40" as="geometry" />
        </mxCell>
        <mxCell id="nMS-Zk-2UTAfJ6sOtUrn-30" style="edgeStyle=orthogonalEdgeStyle;rounded=0;sketch=1;hachureGap=4;jiggle=2;curveFitting=1;orthogonalLoop=1;jettySize=auto;html=1;exitX=0.5;exitY=1;exitDx=0;exitDy=0;entryX=0.5;entryY=0;entryDx=0;entryDy=0;fontFamily=Architects Daughter;fontSource=https%3A%2F%2Ffonts.googleapis.com%2Fcss%3Ffamily%3DArchitects%2BDaughter;fontSize=16;" edge="1" parent="1" source="nMS-Zk-2UTAfJ6sOtUrn-7" target="nMS-Zk-2UTAfJ6sOtUrn-24">
          <mxGeometry relative="1" as="geometry" />
        </mxCell>
        <mxCell id="nMS-Zk-2UTAfJ6sOtUrn-7" value="Topic-5" style="rounded=0;whiteSpace=wrap;html=1;sketch=1;hachureGap=4;jiggle=2;curveFitting=1;fontFamily=Architects Daughter;fontSource=https%3A%2F%2Ffonts.googleapis.com%2Fcss%3Ffamily%3DArchitects%2BDaughter;fontSize=20;fontStyle=1" vertex="1" parent="1">
          <mxGeometry x="330" y="450" width="83.5" height="40" as="geometry" />
        </mxCell>
        <mxCell id="nMS-Zk-2UTAfJ6sOtUrn-14" style="edgeStyle=orthogonalEdgeStyle;rounded=0;sketch=1;hachureGap=4;jiggle=2;curveFitting=1;orthogonalLoop=1;jettySize=auto;html=1;exitX=0.5;exitY=1;exitDx=0;exitDy=0;entryX=0.5;entryY=0;entryDx=0;entryDy=0;fontFamily=Architects Daughter;fontSource=https%3A%2F%2Ffonts.googleapis.com%2Fcss%3Ffamily%3DArchitects%2BDaughter;fontSize=16;" edge="1" parent="1" source="nMS-Zk-2UTAfJ6sOtUrn-8" target="nMS-Zk-2UTAfJ6sOtUrn-5">
          <mxGeometry relative="1" as="geometry" />
        </mxCell>
        <mxCell id="nMS-Zk-2UTAfJ6sOtUrn-8" value="" style="ellipse;whiteSpace=wrap;html=1;aspect=fixed;sketch=1;hachureGap=4;jiggle=2;curveFitting=1;fontFamily=Architects Daughter;fontSource=https%3A%2F%2Ffonts.googleapis.com%2Fcss%3Ffamily%3DArchitects%2BDaughter;fontSize=20;fillColor=#60a917;fontColor=#ffffff;strokeColor=#2D7600;" vertex="1" parent="1">
          <mxGeometry x="150" y="320" width="40" height="40" as="geometry" />
        </mxCell>
        <mxCell id="nMS-Zk-2UTAfJ6sOtUrn-18" style="rounded=0;sketch=1;hachureGap=4;jiggle=2;curveFitting=1;orthogonalLoop=1;jettySize=auto;html=1;exitX=0;exitY=1;exitDx=0;exitDy=0;entryX=1;entryY=0;entryDx=0;entryDy=0;fontFamily=Architects Daughter;fontSource=https%3A%2F%2Ffonts.googleapis.com%2Fcss%3Ffamily%3DArchitects%2BDaughter;fontSize=16;" edge="1" parent="1" source="nMS-Zk-2UTAfJ6sOtUrn-9" target="nMS-Zk-2UTAfJ6sOtUrn-10">
          <mxGeometry relative="1" as="geometry" />
        </mxCell>
        <mxCell id="nMS-Zk-2UTAfJ6sOtUrn-19" style="edgeStyle=orthogonalEdgeStyle;rounded=0;sketch=1;hachureGap=4;jiggle=2;curveFitting=1;orthogonalLoop=1;jettySize=auto;html=1;exitX=0.5;exitY=1;exitDx=0;exitDy=0;entryX=0.5;entryY=0;entryDx=0;entryDy=0;fontFamily=Architects Daughter;fontSource=https%3A%2F%2Ffonts.googleapis.com%2Fcss%3Ffamily%3DArchitects%2BDaughter;fontSize=16;" edge="1" parent="1" source="nMS-Zk-2UTAfJ6sOtUrn-9" target="nMS-Zk-2UTAfJ6sOtUrn-11">
          <mxGeometry relative="1" as="geometry" />
        </mxCell>
        <mxCell id="nMS-Zk-2UTAfJ6sOtUrn-9" value="" style="ellipse;whiteSpace=wrap;html=1;aspect=fixed;sketch=1;hachureGap=4;jiggle=2;curveFitting=1;fontFamily=Architects Daughter;fontSource=https%3A%2F%2Ffonts.googleapis.com%2Fcss%3Ffamily%3DArchitects%2BDaughter;fontSize=20;fillColor=#60a917;fontColor=#ffffff;strokeColor=#2D7600;" vertex="1" parent="1">
          <mxGeometry x="351.75" y="320" width="40" height="40" as="geometry" />
        </mxCell>
        <mxCell id="nMS-Zk-2UTAfJ6sOtUrn-20" style="edgeStyle=orthogonalEdgeStyle;rounded=0;sketch=1;hachureGap=4;jiggle=2;curveFitting=1;orthogonalLoop=1;jettySize=auto;html=1;exitX=0.5;exitY=1;exitDx=0;exitDy=0;entryX=0.5;entryY=0;entryDx=0;entryDy=0;fontFamily=Architects Daughter;fontSource=https%3A%2F%2Ffonts.googleapis.com%2Fcss%3Ffamily%3DArchitects%2BDaughter;fontSize=16;" edge="1" parent="1" source="nMS-Zk-2UTAfJ6sOtUrn-10" target="nMS-Zk-2UTAfJ6sOtUrn-6">
          <mxGeometry relative="1" as="geometry" />
        </mxCell>
        <mxCell id="nMS-Zk-2UTAfJ6sOtUrn-10" value="" style="ellipse;whiteSpace=wrap;html=1;aspect=fixed;sketch=1;hachureGap=4;jiggle=2;curveFitting=1;fontFamily=Architects Daughter;fontSource=https%3A%2F%2Ffonts.googleapis.com%2Fcss%3Ffamily%3DArchitects%2BDaughter;fontSize=20;fillColor=#60a917;fontColor=#ffffff;strokeColor=#2D7600;" vertex="1" parent="1">
          <mxGeometry x="250" y="380" width="40" height="40" as="geometry" />
        </mxCell>
        <mxCell id="nMS-Zk-2UTAfJ6sOtUrn-21" style="edgeStyle=orthogonalEdgeStyle;rounded=0;sketch=1;hachureGap=4;jiggle=2;curveFitting=1;orthogonalLoop=1;jettySize=auto;html=1;exitX=0.5;exitY=1;exitDx=0;exitDy=0;entryX=0.5;entryY=0;entryDx=0;entryDy=0;fontFamily=Architects Daughter;fontSource=https%3A%2F%2Ffonts.googleapis.com%2Fcss%3Ffamily%3DArchitects%2BDaughter;fontSize=16;" edge="1" parent="1" source="nMS-Zk-2UTAfJ6sOtUrn-11" target="nMS-Zk-2UTAfJ6sOtUrn-7">
          <mxGeometry relative="1" as="geometry" />
        </mxCell>
        <mxCell id="nMS-Zk-2UTAfJ6sOtUrn-11" value="" style="ellipse;whiteSpace=wrap;html=1;aspect=fixed;sketch=1;hachureGap=4;jiggle=2;curveFitting=1;fontFamily=Architects Daughter;fontSource=https%3A%2F%2Ffonts.googleapis.com%2Fcss%3Ffamily%3DArchitects%2BDaughter;fontSize=20;fillColor=#60a917;fontColor=#ffffff;strokeColor=#2D7600;" vertex="1" parent="1">
          <mxGeometry x="351.75" y="380" width="40" height="40" as="geometry" />
        </mxCell>
        <mxCell id="nMS-Zk-2UTAfJ6sOtUrn-38" style="rounded=0;sketch=1;hachureGap=4;jiggle=2;curveFitting=1;orthogonalLoop=1;jettySize=auto;html=1;exitX=0.5;exitY=1;exitDx=0;exitDy=0;entryX=0;entryY=0.5;entryDx=0;entryDy=0;fontFamily=Architects Daughter;fontSource=https%3A%2F%2Ffonts.googleapis.com%2Fcss%3Ffamily%3DArchitects%2BDaughter;fontSize=16;" edge="1" parent="1" source="nMS-Zk-2UTAfJ6sOtUrn-22" target="nMS-Zk-2UTAfJ6sOtUrn-27">
          <mxGeometry relative="1" as="geometry" />
        </mxCell>
        <mxCell id="nMS-Zk-2UTAfJ6sOtUrn-22" value="" style="ellipse;whiteSpace=wrap;html=1;aspect=fixed;sketch=1;hachureGap=4;jiggle=2;curveFitting=1;fontFamily=Architects Daughter;fontSource=https%3A%2F%2Ffonts.googleapis.com%2Fcss%3Ffamily%3DArchitects%2BDaughter;fontSize=20;fillColor=#60a917;fontColor=#ffffff;strokeColor=#2D7600;" vertex="1" parent="1">
          <mxGeometry x="149.13" y="520" width="40" height="40" as="geometry" />
        </mxCell>
        <mxCell id="nMS-Zk-2UTAfJ6sOtUrn-32" style="rounded=0;sketch=1;hachureGap=4;jiggle=2;curveFitting=1;orthogonalLoop=1;jettySize=auto;html=1;exitX=0.5;exitY=1;exitDx=0;exitDy=0;entryX=1;entryY=0.5;entryDx=0;entryDy=0;fontFamily=Architects Daughter;fontSource=https%3A%2F%2Ffonts.googleapis.com%2Fcss%3Ffamily%3DArchitects%2BDaughter;fontSize=16;" edge="1" parent="1" source="nMS-Zk-2UTAfJ6sOtUrn-23" target="nMS-Zk-2UTAfJ6sOtUrn-27">
          <mxGeometry relative="1" as="geometry" />
        </mxCell>
        <mxCell id="nMS-Zk-2UTAfJ6sOtUrn-23" value="" style="ellipse;whiteSpace=wrap;html=1;aspect=fixed;sketch=1;hachureGap=4;jiggle=2;curveFitting=1;fontFamily=Architects Daughter;fontSource=https%3A%2F%2Ffonts.googleapis.com%2Fcss%3Ffamily%3DArchitects%2BDaughter;fontSize=20;fillColor=#60a917;fontColor=#ffffff;strokeColor=#2D7600;" vertex="1" parent="1">
          <mxGeometry x="249.13" y="520" width="40" height="40" as="geometry" />
        </mxCell>
        <mxCell id="nMS-Zk-2UTAfJ6sOtUrn-31" style="edgeStyle=orthogonalEdgeStyle;rounded=0;sketch=1;hachureGap=4;jiggle=2;curveFitting=1;orthogonalLoop=1;jettySize=auto;html=1;exitX=0.5;exitY=1;exitDx=0;exitDy=0;entryX=0.5;entryY=0;entryDx=0;entryDy=0;fontFamily=Architects Daughter;fontSource=https%3A%2F%2Ffonts.googleapis.com%2Fcss%3Ffamily%3DArchitects%2BDaughter;fontSize=16;" edge="1" parent="1" source="nMS-Zk-2UTAfJ6sOtUrn-24" target="nMS-Zk-2UTAfJ6sOtUrn-26">
          <mxGeometry relative="1" as="geometry" />
        </mxCell>
        <mxCell id="nMS-Zk-2UTAfJ6sOtUrn-24" value="" style="ellipse;whiteSpace=wrap;html=1;aspect=fixed;sketch=1;hachureGap=4;jiggle=2;curveFitting=1;fontFamily=Architects Daughter;fontSource=https%3A%2F%2Ffonts.googleapis.com%2Fcss%3Ffamily%3DArchitects%2BDaughter;fontSize=20;fillColor=#60a917;fontColor=#ffffff;strokeColor=#2D7600;" vertex="1" parent="1">
          <mxGeometry x="350.88" y="520" width="40" height="40" as="geometry" />
        </mxCell>
        <mxCell id="nMS-Zk-2UTAfJ6sOtUrn-25" value="Topic-6" style="rounded=0;whiteSpace=wrap;html=1;sketch=1;hachureGap=4;jiggle=2;curveFitting=1;fontFamily=Architects Daughter;fontSource=https%3A%2F%2Ffonts.googleapis.com%2Fcss%3Ffamily%3DArchitects%2BDaughter;fontSize=20;fontStyle=1" vertex="1" parent="1">
          <mxGeometry x="180" y="630" width="80" height="40" as="geometry" />
        </mxCell>
        <mxCell id="nMS-Zk-2UTAfJ6sOtUrn-26" value="Topic-7" style="rounded=0;whiteSpace=wrap;html=1;sketch=1;hachureGap=4;jiggle=2;curveFitting=1;fontFamily=Architects Daughter;fontSource=https%3A%2F%2Ffonts.googleapis.com%2Fcss%3Ffamily%3DArchitects%2BDaughter;fontSize=20;fontStyle=1" vertex="1" parent="1">
          <mxGeometry x="331.75" y="630" width="80" height="40" as="geometry" />
        </mxCell>
        <mxCell id="nMS-Zk-2UTAfJ6sOtUrn-34" style="edgeStyle=orthogonalEdgeStyle;rounded=0;sketch=1;hachureGap=4;jiggle=2;curveFitting=1;orthogonalLoop=1;jettySize=auto;html=1;exitX=0.5;exitY=1;exitDx=0;exitDy=0;entryX=0.5;entryY=0;entryDx=0;entryDy=0;fontFamily=Architects Daughter;fontSource=https%3A%2F%2Ffonts.googleapis.com%2Fcss%3Ffamily%3DArchitects%2BDaughter;fontSize=16;" edge="1" parent="1" source="nMS-Zk-2UTAfJ6sOtUrn-27" target="nMS-Zk-2UTAfJ6sOtUrn-25">
          <mxGeometry relative="1" as="geometry" />
        </mxCell>
        <mxCell id="nMS-Zk-2UTAfJ6sOtUrn-27" value="" style="ellipse;whiteSpace=wrap;html=1;aspect=fixed;sketch=1;hachureGap=4;jiggle=2;curveFitting=1;fontFamily=Architects Daughter;fontSource=https%3A%2F%2Ffonts.googleapis.com%2Fcss%3Ffamily%3DArchitects%2BDaughter;fontSize=20;fillColor=#60a917;fontColor=#ffffff;strokeColor=#2D7600;" vertex="1" parent="1">
          <mxGeometry x="200" y="570" width="40" height="40" as="geometry" />
        </mxCell>
      </root>
    </mxGraphModel>
  </diagram>
</mxfile>
